<svg xmlns="http://www.w3.org/2000/svg" width="373.336" height="373.336" viewBox="0 0 280.002 280.002"><path style="stroke:none;fill-rule:nonzero;fill:#fff;fill-opacity:1" d="M272.418 140A132.424 132.424 0 0 1 140 272.418 132.424 132.424 0 0 1 7.582 140 132.417 132.417 0 0 1 140 7.582 132.417 132.417 0 0 1 272.418 140"/><path style="fill:none;stroke-width:4.46;stroke-linecap:butt;stroke-linejoin:miter;stroke:red;stroke-opacity:1;stroke-miterlimit:4" d="M272.418 140A132.424 132.424 0 0 1 140 272.418 132.424 132.424 0 0 1 7.582 140 132.417 132.417 0 0 1 140 7.582 132.417 132.417 0 0 1 272.418 140Zm0 0"/><path style="stroke:none;fill-rule:nonzero;fill:#002e60;fill-opacity:1" d="M140 9.813c34.527 0 67.64 13.714 92.055 38.132A130.172 130.172 0 0 1 270.187 140c0 34.527-13.714 67.64-38.132 92.055A130.172 130.172 0 0 1 140 270.187a130.172 130.172 0 0 1-92.055-38.132A130.172 130.172 0 0 1 9.812 140c0-34.527 13.715-67.64 38.133-92.055A130.172 130.172 0 0 1 140 9.812m0-4.46a134.66 134.66 0 0 0-95.21 39.437 134.652 134.652 0 0 0 0 190.422 134.652 134.652 0 0 0 190.422 0 134.652 134.652 0 0 0-.001-190.422A134.652 134.652 0 0 0 140 5.352"/><path style="fill:none;stroke-width:10.706001;stroke-linecap:butt;stroke-linejoin:miter;stroke:#002e60;stroke-opacity:1;stroke-miterlimit:4" d="M140 9.813c34.527 0 67.64 13.714 92.055 38.132A130.172 130.172 0 0 1 270.187 140c0 34.527-13.714 67.64-38.132 92.055A130.172 130.172 0 0 1 140 270.187a130.172 130.172 0 0 1-92.055-38.132A130.172 130.172 0 0 1 9.812 140c0-34.527 13.715-67.64 38.133-92.055A130.172 130.172 0 0 1 140 9.812Zm0-4.461a134.66 134.66 0 0 0-95.21 39.437 134.652 134.652 0 0 0 0 190.422 134.652 134.652 0 0 0 190.422 0 134.652 134.652 0 0 0-.001-190.422A134.652 134.652 0 0 0 140 5.352Zm0 0"/><path style="stroke:none;fill-rule:nonzero;fill:#7bb1dd;fill-opacity:1" d="M140 9.813c34.527 0 67.64 13.714 92.055 38.132A130.172 130.172 0 0 1 270.187 140c0 34.527-13.714 67.64-38.132 92.055A130.172 130.172 0 0 1 140 270.187a130.172 130.172 0 0 1-92.055-38.132A130.172 130.172 0 0 1 9.812 140c0-34.527 13.715-67.64 38.133-92.055A130.172 130.172 0 0 1 140 9.812m0-4.46a134.66 134.66 0 0 0-95.21 39.437 134.652 134.652 0 0 0 0 190.422 134.652 134.652 0 0 0 190.422 0 134.652 134.652 0 0 0-.001-190.422A134.652 134.652 0 0 0 140 5.352"/><path style="fill:none;stroke-width:4.955;stroke-linecap:butt;stroke-linejoin:miter;stroke:#002e60;stroke-opacity:1;stroke-miterlimit:4" d="M223.73 140.523a83.361 83.361 0 0 1-24.417 58.942 83.361 83.361 0 0 1-58.942 24.418 83.363 83.363 0 0 1-83.36-83.36 83.36 83.36 0 0 1 24.415-58.945 83.36 83.36 0 0 1 142.304 58.945Zm0 0"/><path style="stroke:none;fill-rule:nonzero;fill:#7bb1dd;fill-opacity:1" d="M217.918 140.395a77.8 77.8 0 0 1-22.781 55.003 77.784 77.784 0 0 1-110 0 77.79 77.79 0 0 1 0-110.004 77.784 77.784 0 0 1 110 0 77.79 77.79 0 0 1 22.781 55"/><path style="stroke:none;fill-rule:evenodd;fill:#002e60;fill-opacity:1" d="M75.84 76.129c-5.559 23.676-5.625 45.035-5.395 59.59-.363 66.328 48.707 86.918 69.528 93.195 20.824-6.277 69.894-26.867 69.53-93.195.231-14.555.165-35.914-5.394-59.59-32.21-5.649-51.797-5.106-64.136-5.246-12.336.14-31.922-.403-64.133 5.246"/><path style="stroke:none;fill-rule:evenodd;fill:#ffbb59;fill-opacity:1" d="M82.496 80.758c-3.535 15.687-5.344 29.844-6.027 41.605-.274 12.82-.418 25.825 1.601 37.293 1.063 6.035 2.832 12.32 6.04 18.809 6.706 12.57 16.296 23.703 25.011 29.625 11.512 8.754 23.402 13.597 30.852 15.957 7.453-2.36 19.343-7.203 30.855-15.957 8.715-5.922 18.305-17.055 25.008-29.625 3.21-6.488 4.98-12.774 6.043-18.809 2.02-11.469 1.875-24.472 1.598-37.293-.68-11.761-2.489-25.918-6.024-41.605-28.945-5.285-46.394-4.778-57.48-4.91-11.082.132-28.532-.375-57.477 4.91"/><path style="stroke:none;fill-rule:nonzero;fill:#002e60;fill-opacity:1" d="M120.672 239.672c-.25-.164-.871-.883-1.445-1.246-4.7-3.02-10.247-.11-10.512 5.578-.153 3.476 2.398 6.434 5.246 6.988 2.937.547 5.031-.789 6.96-2.476l2.97 3.117c-1.536 1.613-3.371 3.125-6.692 3.77-.617.105-1.465.16-2.547.16-6.191-.598-9.707-3.88-10.73-9.149a11.184 11.184 0 0 1 1.398-8.176c1.79-2.918 4.418-4.601 7.797-5.258 4.031-.761 8.133.543 10.649 3.196ZM128.55 233.125h4.966v22.016h-4.965ZM156.305 237.695h-6.703v17.446h-4.973v-17.446h-6.688v-4.57h18.364ZM180.055 233.125l-8.508 13.152v8.864h-4.852v-8.864l-8.402-13.152h5.695l5.172 8.988 5.387-8.988Zm0 0"/><path style="stroke:none;fill-rule:evenodd;fill:#002e60;fill-opacity:1" d="m55.23 101.832-2.207 4.106L33.98 95.96l2.387-4.508 10.871-.687-5.578-9.446 2.371-4.472L63.06 86.914l-2.149 4.121-12.601-6.672 5.464 9.89-11.09 1.106Zm0 0"/><path style="stroke:none;fill-rule:nonzero;fill:#002e60;fill-opacity:1" d="m68.496 67.14-7.187-2.792 3.18 6.957Zm12.473-.124-3.473 3.629-4.86-1.922-6.284 6.675 2.214 4.766-3.296 3.445-9.48-21.558 2.98-3.2Zm0 0"/><path style="stroke:none;fill-rule:evenodd;fill:#002e60;fill-opacity:1" d="M84.121 64.73 72.895 46.352l3.753-2.305 15.575 6.191-6.95-11.414 4.012-2.426 11.164 18.446-3.445 2.05-16.094-6.308 7.156 11.719Zm0 0"/><path style="stroke:none;fill-rule:nonzero;fill:#002e60;fill-opacity:1" d="M116.578 33.719c-.281-.086-1.058-.59-1.703-.778-5.246-1.55-9.664 2.707-8.36 8.125.81 3.317 4.02 5.399 6.848 5.137 2.914-.289 4.516-2.117 5.871-4.234l3.649 2.117c-1.004 1.937-2.317 3.867-5.262 5.383-.55.265-1.336.55-2.351.847-5.989 1.133-10.196-.992-12.606-5.668a10.98 10.98 0 0 1-.922-8.074c.887-3.234 2.899-5.539 5.895-7.082 3.582-1.82 7.8-1.719 10.89.09ZM214.328 57.402l-5.215-4.047-10.449 13.762-3.816-2.87L205.34 50.55l-5.203-3.973 2.644-3.465 14.192 10.852Zm0 0"/><path style="stroke:none;fill-rule:evenodd;fill:#002e60;fill-opacity:1" d="m127.754 25.293.5 21.555 4.695-.16-.27-8.657 8.895-.254.211 8.72 4.649-.106-.477-21.543-4.75.101.227 8.567-8.817.23-.195-8.543ZM157.613 26.203l15.852 3.45-.926 4.097-11.27-2.48-.992 4.398 9.317 1.965-2.215 3.77-7.953-1.72-1.008 4.505 11.496 2.472-.906 4.074-15.98-3.468ZM186.492 44.152c-2.785-2.058-2.816-3.3-2.094-4.316.73-.8 1.606-.79 2.536-.461 1.492.508 2.66 1.527 3.562 2.7.492.644.875 1.273 1.25 1.855l3.691-2.278c-.558-1.062-2.07-4.101-6.519-6.011-2.094-.914-7.117-1.754-9.277 3.363-.871 2.219-.54 3.648.02 4.633 1.245 1.98 3.167 3.375 4.921 4.925.727.602 1.477 1.325 1.785 2.196.215.66.035 1.347-.457 1.77-2.555 2.175-7.203-2.536-8.105-5.063l-3.961 1.887c2.11 4.097 5.683 7.785 11.344 7.953 2.039-.102 4.378-1.215 5.472-3.684.73-1.969.899-3.762-.14-5.41-.985-1.543-2.696-3.113-4.028-4.059M223.55 60.336 233.935 72.8l-3.25 2.66-7.364-8.879-3.484 2.86 6.375 7.574-4.266 1.379-5.25-6.31-3.562 2.935 7.547 9.015-3.22 2.653-10.476-12.555Zm0 0"/><path style="stroke:none;fill-rule:nonzero;fill:#002e60;fill-opacity:1" d="m228.547 107.484-2.461-4.925 4.125-7.192-1.793-3.36-6.14 3.067-2.098-4.219 19.238-9.656 4.09 8.188c.558 1.12.832 1.789 1.117 2.656.582 1.668.621 3.266.078 4.59-1.777 4.344-7.516 6.48-11.637 2.695Zm11.387-15.773-2.239-4.367-5.48 2.82 2.062 4.203c1.118 2.344 2.883 2.598 4.313 2.074 1.57-.578 2.55-2.582 1.344-4.73"/><path style="stroke:none;fill-rule:nonzero;fill:#7bb1dd;fill-opacity:1" d="M240.164 138.852c.04-1.114-.898-1.825-1.812-2.043a2.758 2.758 0 0 0-1.332.035 2.33 2.33 0 0 0-1.016.656c-1.043 1.234-.262 2.77.644 3.14.329.15.758.247 1.32.255 1.802-.04 2.184-1.489 2.196-2.043m-.125 3.324c-1.82 1.617-4.566 1.222-6.125-.399a4.037 4.037 0 0 1-1.113-2.75c.054-.789.277-1.535.617-2.183.414-.781.965-1.356 1.68-1.742 1.64-.891 3.808-.946 5.32-.036 1.074.664 1.809 1.774 2.148 3.063.204.797.309 1.707.309 2.723-.047 2.562-.766 4.98-2.746 6.175-.54.325-1.2.54-1.996.633-2.11.246-3.664-.41-4.965-1.402l1.45-2.153c3.573 2.872 5.347.11 5.421-1.93M252.172 142.496v-4.144l-3.715 4.144Zm4.21 2.234h-1.652v2.946h-2.558v-2.946h-6.445l-.356-1.96 7-8.254h2.36v7.98h1.652ZM26.766 137.918l-.547-2.227 3.441-1.129h2.121v13.004h-2.726v-10.32ZM42.246 143.676c-.039-1.317-1.496-1.664-2.457-1.63-1.008.075-2.035.677-2.047 1.63.035 1.242 1.313 1.808 2.317 1.816 1.168-.004 2.175-.762 2.187-1.816m-.871-4.168c.316-.32.473-.688.473-1.09 0-.469-.157-.832-.473-1.094-.313-.273-.75-.406-1.316-.406-.567 0-1.008.133-1.332.406-.313.262-.47.625-.47 1.094 0 .402.161.77.481 1.09.649.52 1.746.637 2.637 0m1.336 1.297c1.543.593 2.273 1.77 2.293 3.324-.016 1.805-1.324 2.969-2.863 3.394-.61.165-1.305.247-2.082.247-2.141-.06-4.918-1.024-4.97-3.641.075-1.797.481-2.465 2.044-3.324-1.578-.993-2.153-2.664-1.16-4.465.234-.414.558-.762.965-1.04.41-.277.878-.488 1.414-.628a6.51 6.51 0 0 1 1.707-.215c2.257-.023 4.265 1.09 4.488 3.39.055.626-.043 1.266-.379 1.813-.277.473-.75.848-1.457 1.145"/><path style="stroke:none;fill-rule:evenodd;fill:#e9ab00;fill-opacity:1" d="M139.973 224.047c7.453-2.36 19.343-7.203 30.855-15.957 8.715-5.922 18.305-17.055 25.008-29.625 3.21-6.488 4.98-12.774 6.043-18.809 2.02-11.469 1.875-24.472 1.598-37.293-.68-11.761-2.489-25.918-6.024-41.605-28.945-5.285-46.394-4.778-57.48-4.91"/><path style="stroke:none;fill-rule:evenodd;fill:#7bb1dd;fill-opacity:1" d="M198.707 147.844c-2.746 33.082-18.207 55.957-58.734 70.433-40.52-14.476-55.985-37.347-58.73-70.43Zm0 0"/><path style="stroke:none;fill-rule:evenodd;fill:#fff;fill-opacity:1" d="M80.926 142.871c-.285-6.39-.145-13.14.34-20.27.632-11.066 1.324-23.968 4.609-38.73 25.656-4.637 43.063-4.547 54.098-4.875 11.039.328 28.445.238 54.101 4.875 3.285 14.762 3.977 27.664 4.61 38.73.488 7.16.625 13.942.336 20.36Zm0 0"/><path style="stroke:none;fill-rule:evenodd;fill:#a8c9e8;fill-opacity:1" d="M153.73 212.59c-4.226 2.023-8.804 3.918-13.757 5.687l-58.73-70.43 19.1-.003Zm41.958-47.008c-1.543 5.633-3.645 10.902-6.391 15.816l-27.766-33.554h19.457Zm-16.579 29.445c-3.129 3.215-6.68 6.23-10.695 9.059l-46.633-56.242h18.254Zm0 0"/><path style="stroke:none;fill-rule:evenodd;fill:#fbc24e;fill-opacity:1" d="M154.445 133.98c8.223-.386 16.559-1.68 20.535-2.71-.824 6.417-7.3 5.683-3.648 11.667l-8.344-.007c-3.136-1.059-6.394-2.395-9.152-2.621-.836-.063-1.54-.051-2.246.222-8.672 3.336-15.715-.476-22.207-.633-.242.786-1.617 1.723-4.352 2.008-4.66.563-7.984-1.37-11.66-1.5-1.328-.043-2.594.403-3.656 2.485-1.875-2.606-3.02-4.582-5.625-7.817-3.918-1.875-7.547-3.387-11.043-4.738l.18-.734c11.152 3.441 19.609 4.699 27.168 5.378 9.335.356 19.375.97 28.484.333 2.578-.793 3.598-1.239 5.566-1.333"/><path style="stroke:none;fill-rule:evenodd;fill:#eaaa00;fill-opacity:1" d="M173.656 132.172c-.965 4.129-7.125 5.687-3.031 10.766l-4.883-.004c-3.148-1.09-8.5-3.454-14.512-3.52-2.164 1.664-6.21 2.473-12.328 1.11-2.84-.633-6.722-1.555-10.656-1.532-.945 3.832-13.531 2.27-17.969-3.574l-5.742-1.434-1.316-1.047c9.062 1.895 18.324 3.008 23.054 3.153 8.637.316 16.747.328 22.528.125 1.933-.559 2.3-.8 3.262-1.164 1.375-.688 3.015-.57 4.355-.645 8.05-.437 13.144-1.484 17.238-2.234"/><path style="stroke:none;fill-rule:evenodd;fill:#eaaa00;fill-opacity:1" d="M128.633 115.332c-4.016 13.73-15.918 11.957-15.168 17.469 1.82-1.598 3.558-1.742 5.308-2.168l.032 4.195c.504.05 1 .098 1.492.145l.078-4.54c4.305-.511 8.086.028 11.973.356-3.157-5.062-5.157-10.18-3.715-15.457m6.492 18.52c1.102-1.641 2.918-2.465 5.047-2.93l-.059 4.668c.535 0 1.067-.004 1.598-.008l-.066-5.023c5.859-.762 12.199.18 17.257 1.437l-.027 1.691c.55-.042 1.05-.093 1.594-.144l.015-2.004 16.563-5.781c-4.7-6.219-4.274-13.465-3.07-20.863-.907 3.726-3.059 10.562-8.72 16.867-4.472 4.984-4.023 6.062-4.792 7.465l-.32-33.594-3.82 1.289c-.802.23-.333.598-.99.902l-3.847 1.473 4.414-.203c.649 0 .246-.887.848-.985l2.45-.246-.313 33.192c-2.617-4.102-7.168-9.024-5.32-19.336-4.688 17.77-19.583 15.836-18.442 22.133"/><path style="stroke:none;fill-rule:evenodd;fill:#ffbb59;fill-opacity:1" d="m111.305 121.336 17.328-6.004c-4.016 13.73-15.918 11.957-15.168 17.469-4.055-3.977-4.207-8.754-2.16-11.465m21.363-2.438 20.898-7.18c-4.687 17.77-19.582 15.837-18.441 22.134-3.48-3.297-6.906-9.528-2.457-14.954m41.309-14.003c-.907 3.726-3.059 10.562-8.72 16.867-4.472 4.984-4.023 6.062-4.792 7.465l-.184-19.579Zm0 0"/><path style="stroke:none;fill-rule:evenodd;fill:#eaaa00;fill-opacity:1" d="m141.617 91.59-.039-6.024-3.824 1.29c-.8.23-.332.593-.988.898l-3.848 1.473 4.414-.204c.648 0 .246-.882.848-.984l2.449-.242-.04 4.16ZM120.055 106.422l-.04-7.328-3.82 1.285c-.8.23-.336.598-.992.902l-3.742 1.387 4.312-.117c.649 0 .243-.883.848-.985l2.45-.242-.02 5.446Zm0 0"/><path style="stroke:none;fill-rule:evenodd;fill:#ffbb59;fill-opacity:1" d="M137.332 89.023c.648 0 .246-.882.848-.984l-.426-1.184c-.8.23-.332.594-.988.899ZM148.164 89.324c-6.133 11.797-14.351 9.828-15.363 15.489-3.215-2.551-1.84-7.876.238-10.211Zm0 0"/><path style="stroke:none;fill-rule:evenodd;fill:#eaaa00;fill-opacity:1" d="M149.96 99.484c-2.1-2.546-3.542-5.464-1.796-10.16-6.133 11.797-14.351 9.828-15.363 15.489 3.472-4.7 13.972-5.067 17.16-5.329"/><path style="stroke:none;fill-rule:evenodd;fill:#ffbb59;fill-opacity:1" d="M132.95 117.867c-3.618-5.293-3.305-10.742-.098-12.246 5.703-2.043 13.046-4.281 17.109-6.137-2.887 11.121-15.734 12.13-17.012 18.383"/><path style="stroke:none;fill-rule:evenodd;fill:#eaaa00;fill-opacity:1" d="M149.96 99.484c-2.886 11.121-15.733 12.13-17.01 18.383 2.69-3.601 8.882-5.969 20.648-6.367-2.586-3.316-4.414-7.016-3.637-12.016"/><path style="stroke:none;fill-rule:evenodd;fill:#ffbb59;fill-opacity:1" d="M125.656 104.395c-4.98 1.859-9.394 3.398-13.3 4.66-1.774 1.82-3.981 6.78-.672 11.015-.614-4.875 9.851-6.718 13.972-15.675"/><path style="stroke:none;fill-rule:evenodd;fill:#eaaa00;fill-opacity:1" d="M111.684 120.07c-.614-4.875 9.851-6.718 13.972-15.675-.18 2.168-1.023 6.855 2.914 10.75-6.058.398-13.98 1.27-16.886 4.925"/><path style="stroke:none;fill-rule:evenodd;fill:#ffbb59;fill-opacity:1" d="M115.773 102.55c.649 0 .243-.882.848-.984l-.426-1.187c-.8.23-.336.598-.992.902ZM110.023 109.719c-4.32 3.097-12.128 8.922-16.242 18.683 2.688-.289 5.403-.293 9.297.532-3.058-2.125-3.66-4.489 6.945-19.215"/><path style="stroke:none;fill-rule:evenodd;fill:#eaaa00;fill-opacity:1" d="m106.234 129.574-3.156-.64c-3.058-2.125-3.66-4.489 6.945-19.215-2.183 3.894-5.652 10.847-3.789 19.855"/><path style="stroke:none;fill-rule:evenodd;fill:#ffbb59;fill-opacity:1" d="M155.902 99.094c.649 0 .246-.887.848-.985l-.426-1.187c-.8.23-.332.598-.988.902Zm0 0"/><path style="stroke:none;fill-rule:evenodd;fill:#002e60;fill-opacity:1" d="m141.113 155.902 2.485 3.118c.347.394.195.796.16 1.12 1.746-.09 3.668.462 4.824 2.098 1.234 1.758 2.106 2.692 3.059 3.434 1.32.996 2.613 1.445 3.797 1.758 1.718.453 3.035 1.558 3.808 3.918.274-.016.48-.172 1.387.09l3.293 1.125c.191.085.48.183.695.43.203.265.281.538.324.827.035.266.035.625-.12.95l-2.477 3.496c-.246.28-.657.394-.782.402.668 1.61.79 3.71-.574 5.469-1.707 2.21-1.953 2.883-2.363 4.133-.258.91-.379 2.574-.399 4.5-.011 1.515-.77 2.917-2.445 3.914.024.109.13.308.14.613l.036 3.55c.035.454-.035.926-.238 1.258-.32.47-.739.66-1.25.72-.485.054-.93-.024-1-.052l-3.578-1.168c-.356-.18-.418-.39-.415-.359-3.648 2.91-6.636.281-9.507.191-2.868.09-5.856 2.72-9.504-.19.004-.032-.059.179-.414.358l-3.578 1.168c-.07.028-.516.106-1 .051-.512-.058-.93-.25-1.25-.719-.204-.332-.274-.804-.239-1.257l.035-3.551c.012-.305.118-.504.141-.613-1.676-.996-2.434-2.399-2.445-3.914-.02-1.926-.14-3.59-.399-4.5-.41-1.25-.656-1.922-2.367-4.133-1.36-1.758-1.238-3.86-.57-5.469-.125-.008-.54-.121-.781-.402l-2.477-3.496c-.156-.325-.156-.684-.121-.95.043-.289.121-.562.324-.828.215-.246.504-.344.695-.43l3.293-1.125c.907-.261 1.114-.105 1.387-.09.774-2.359 2.09-3.464 3.809-3.917 1.183-.313 2.476-.762 3.797-1.758.953-.742 1.824-1.676 3.058-3.434 1.156-1.636 3.078-2.187 4.824-2.097-.035-.325-.187-.727.16-1.121l2.485-3.118c.426-.52.851-.53 1.137-.57.289.04.714.05 1.14.57"/><path style="stroke:none;fill-rule:evenodd;fill:#e41819;fill-opacity:1" d="M139 168.031c-.824-.808-2.156-1.383-3.703-.238-.2.148-.402.324-.61.535-1.257 1.223-1.511 2.348-2.917 3.024-1.907.906-5.344.941-4.211 4.562.382 1.063.41.902-.63.703-1.788-.441-3.34-1.433-3.472-3.336-.05-1.816.766-3.199 2.332-3.722.992-.332 2.094-.414 4.09-1.801 2.371-1.64 2.726-3.727 4.539-4.551 1.082-.441 2.133-.437 3.152.02 1.727.789 2.051 2.585 1.899 4.73-.016.57-.297.27-.469.074"/><path style="stroke:none;fill-rule:evenodd;fill:#e41819;fill-opacity:1" d="m139.438 177.805.015-6.23c.094-1.364-.46-2.427-1.726-2.743-.536-.133-1.059-.11-1.551.176-.66.387-1.14 1.117-1.746 1.836-.625.715-1.262 1.394-2.086 1.73-.672.274-1.504.446-2.164.801-.774.414-1.364 1.02-1.34 2.133 0 .605.273 1.207.773 1.644.528.446 1.106.567 1.774.786l5.324 1.722c.414.113.566.035.75-.281.57-.941 1.125-1.02 1.637-1.102.265-.007.351-.27.34-.472M141.29 168.031c.823-.808 2.155-1.383 3.702-.238.2.148.403.324.61.535 1.257 1.223 1.511 2.348 2.918 3.024 1.906.906 5.343.941 4.21 4.562-.382 1.063-.41.902.63.703 1.788-.441 3.34-1.433 3.472-3.336.05-1.816-.766-3.199-2.332-3.722-.992-.332-2.094-.414-4.09-1.801-2.37-1.64-2.722-3.727-4.539-4.551-1.082-.441-2.133-.437-3.152.02-1.727.789-2.051 2.585-1.899 4.73.016.57.297.27.47.074"/><path style="stroke:none;fill-rule:evenodd;fill:#e41819;fill-opacity:1" d="m140.852 177.805-.016-6.23c-.094-1.364.46-2.427 1.726-2.743.536-.133 1.06-.11 1.551.176.66.387 1.14 1.117 1.746 1.836.63.715 1.262 1.394 2.086 1.73.672.274 1.504.446 2.164.801.774.414 1.364 1.02 1.34 2.133 0 .605-.273 1.207-.773 1.644-.528.446-1.106.567-1.774.786l-5.324 1.722a.85.85 0 0 1-.418.055.414.414 0 0 1-.203-.09c-.844-1.246-1.156-1.18-1.918-1.355-.152-.09-.203-.258-.187-.465M149.008 191.781c1.144.168 2.558-.156 3.129-1.992.074-.238.136-.504.18-.793.288-1.73-.169-2.789.566-4.164 1-1.855 3.754-3.914.699-6.168-.937-.633-.863-.488.094-.941 1.703-.7 3.539-.817 4.773.644 1.113 1.434 1.27 3.031.317 4.38-.606.855-1.446 1.57-2.235 3.87-.945 2.723.004 4.613-.972 6.352-.614.996-1.465 1.613-2.559 1.847-1.855.383-3.184-.875-4.324-2.699-.324-.469.078-.39.332-.336"/><path style="stroke:none;fill-rule:evenodd;fill:#e41819;fill-opacity:1" d="m142.883 184.156 3.668 5.035c.73 1.157 1.804 1.688 3.015 1.192.508-.207.918-.535 1.145-1.055.305-.7.262-1.578.324-2.516.082-.945.192-1.867.66-2.625.383-.617.95-1.253 1.274-1.925.383-.793.496-1.63-.18-2.512-.355-.492-.93-.813-1.594-.871-.687-.047-1.23.195-1.894.414l-5.317 1.758c-.336.097-.464.262-.445.586.106 1.16-.406 1.675-.777 2.031-.07.164-.012.332.12.488M131.207 191.781c-1.144.168-2.559-.156-3.133-1.992a5.298 5.298 0 0 1-.176-.793c-.293-1.73.168-2.789-.566-4.164-1.004-1.855-3.754-3.914-.703-6.168.937-.633.863-.488-.09-.941-1.703-.7-3.543-.817-4.773.644-1.114 1.434-1.274 3.031-.317 4.38.606.855 1.446 1.57 2.235 3.87.941 2.723-.004 4.613.972 6.352.614.996 1.461 1.613 2.559 1.847 1.855.383 3.18-.875 4.324-2.699.32-.469-.082-.39-.332-.336"/><path style="stroke:none;fill-rule:evenodd;fill:#e41819;fill-opacity:1" d="m137.332 184.156-3.668 5.035c-.73 1.157-1.805 1.688-3.016 1.192-.507-.207-.918-.535-1.148-1.055-.3-.7-.258-1.578-.32-2.516-.082-.945-.196-1.867-.66-2.625-.383-.617-.954-1.253-1.274-1.925-.383-.793-.496-1.63.176-2.512.36-.492.933-.813 1.598-.871.687-.047 1.23.195 1.894.414l5.313 1.758c.253.074.445.199.488.418-.168.894.215 1.492.691 2.117.137.191.082.387-.074.57M147.16 192.996c-.187 1.14-.93 2.39-2.851 2.375-.25 0-.52-.023-.809-.07-1.738-.246-2.605-1.008-4.14-.727-2.07.39-4.868 2.387-6.09-1.203-.317-1.086-.2-.973-.922-.2-1.184 1.411-1.856 3.126-.84 4.743 1.027 1.496 2.504 2.133 4.078 1.633 1-.317 1.937-.899 4.367-.953 2.879-.07 4.395 1.402 6.348 1.004 1.133-.282 1.98-.907 2.535-1.875.93-1.653.133-3.301-1.254-4.942-.348-.449-.398-.043-.422.215"/><path style="stroke:none;fill-rule:evenodd;fill:#e41819;fill-opacity:1" d="m141.758 184.844 3.68 5.023c.878 1.047 1.058 2.235.222 3.235-.355.421-.793.71-1.355.773-.762.074-1.582-.234-2.496-.457-.926-.211-1.84-.383-2.704-.172-.703.18-1.48.527-2.218.633-.871.121-1.703-.024-2.34-.934a2.184 2.184 0 0 1-.344-1.785c.16-.672.559-1.113.969-1.68l3.289-4.53c.156-.227.34-.372.574-.333a2.462 2.462 0 0 0 2.215.035c.207-.136.41.04.508.192"/><path style="stroke:none;fill-rule:nonzero;fill:#febe53;fill-opacity:1" d="M142.27 181.527a2.073 2.073 0 0 1-2.075 2.075 2.073 2.073 0 0 1-2.074-2.075 2.074 2.074 0 1 1 4.149 0"/><path style="stroke:none;fill-rule:evenodd;fill:#e41819;fill-opacity:1" d="M138.21 161.215c-.241-.203-.163-.266.052-.528a34.977 34.977 0 0 0 1.71-2.468c.598.945 1.16 1.73 1.715 2.469.215.261.29.324.051.527-.672.578-1.445 1.3-1.765 2.597-.317-1.296-1.09-2.019-1.762-2.597M158.79 173.566c.128-.293.206-.238.523-.109.867.313 1.785.617 2.863.906a35.295 35.295 0 0 0-1.852 2.364c-.187.285-.222.375-.492.207-.75-.47-1.668-.996-3-.918 1.145-.684 1.606-1.641 1.957-2.45M120.285 176.918c-.27.164-.305.074-.488-.211a34.151 34.151 0 0 0-1.817-2.394 34.189 34.189 0 0 0 2.88-.864c.316-.12.398-.176.519.117.34.817.785 1.778 1.922 2.48-1.332-.1-2.258.415-3.016.872M153.395 196.57c.316.02.289.114.273.453 0 .922.023 1.887.117 3.004a35.217 35.217 0 0 0-2.851-.949c-.332-.082-.43-.082-.36-.39.188-.868.375-1.907-.148-3.137 1.031.847 2.086.957 2.969 1.02M129.746 198.617c.074.309-.023.313-.351.399-.88.277-1.797.586-2.833 1.007.07-1.117.07-2.082.051-3.003-.02-.34-.047-.434.266-.461.883-.079 1.933-.207 2.95-1.079-.5 1.239-.29 2.278-.083 3.137"/></svg>